<svg width="1052" height="185" viewBox="0 0 1052 185" fill="none" xmlns="http://www.w3.org/2000/svg">
<path d="M231.989 110.475H230.117V103.963H226.685V110.475H220.443V115.888H214.44V119.145H216.311V120.953H214.44V124.211H216.311V126.018H214.44V129.274H216.311V131.083H214.44V134.341H216.311V136.149H214.44V139.406H216.311V141.213H214.44V144.471H216.311V144.585H212.806C211.781 142.065 209.017 140.256 205.763 140.256C202.514 140.256 199.749 142.065 198.723 144.585H194.425V147.473H195.53V167.704L186.833 162.462L175.452 169.319V170.928C174.346 165.799 173.481 160.8 172.822 156.277C172.249 152.293 171.831 148.676 171.564 145.657C171.49 144.844 171.429 144.074 171.377 143.35H183.114L171.17 134.548C171.17 132.507 171.17 130.127 171.17 127.694H183.114L171.17 118.891C171.17 117.583 171.17 116.394 171.17 115.392C171.17 114.402 171.17 113.592 171.17 113.033C171.17 112.777 171.17 112.575 171.17 112.425L176.639 105.871H151.961L157.432 112.425C157.432 113.22 157.432 115.704 157.432 118.891L145.488 127.694H157.432C157.432 130.127 157.432 132.505 157.432 134.548L145.488 143.35H157.223C157.101 145.076 156.919 147.08 156.672 149.292C155.883 156.445 154.432 165.813 152.16 175.299L150.504 174.123V169.732L151.798 170.651V168.808L142.846 162.457L133.894 168.808V170.651L135.19 169.732V174.123L133.668 175.203V151.414H130.577V146.474H120.931V151.414H109.574V125.5H106.599V121.62H109.574V119.03H90.9857V121.62H93.9588V125.5H90.9857V159.774H80.5746V130.672V124.851V120.322V118.385V117.736H61.242V120.322H65.7027V124.851H61.242V159.774V160.169L53.2411 156.634L45.4332 160.085V147.639H41.9978V142.145H31.2641V147.639H17.3662V155.878H12.9363V159.724H17.3683V164.12H14.0191L11.6768 162.458L2.72657 168.81V169.562H0V184.994H4.01897H10.0125H17.3662H19.3284H42.2567H45.4332H53.2411H61.242H64.2234H80.5725H90.9836H108.432H109.572H128.782H133.666H135.188H141.595H144.091H148.542H150.5H153.175H156.906V180.514L158.201 181.433V179.586L157.531 179.111L164.137 174.734H164.391L172.002 179.751V184.994H175.324H179.956H186.833H195.53H201.668H214.44H215.995H235.656V181.738H233.784V179.93H235.656V176.675H233.784V174.865H235.656V171.609H233.784V169.8H235.656V166.542H233.784V164.735H235.656V161.479H233.784V159.669H235.656V156.412H233.784V154.604H235.656V151.346H233.784V149.539H235.656V146.283H233.784V144.474H235.656V141.216H233.784V139.409H235.656V136.153H233.784V134.344H235.656V131.086H233.784V129.278H235.656V126.022H233.784V124.215H235.656V120.957H233.784V119.148H235.656V115.892H231.987V110.475H231.989ZM12.9363 170.104V172.365V172.929H10.0125V170.104H12.9363V170.104ZM12.9363 181.118H10.0125V178.296H12.9363V181.118ZM28.2335 180.616H25.3117V177.862H28.2335V180.616ZM28.2335 171.862H25.3117V169.108H28.2335V171.862ZM28.2335 163.107H25.3117V160.353H28.2335V163.107ZM28.2335 154.354H25.3117V151.599H28.2335V154.354ZM36.1892 180.616H33.2654V177.862H36.1892V180.616ZM36.1892 171.862H33.2654V169.108H36.1892V171.862ZM36.1892 163.107H33.2654V160.353H36.1892V163.107ZM36.1892 154.354H33.2654V151.599H36.1892V154.354ZM51.1309 172.654H48.2091V168.981H51.1309V172.654ZM54.704 181.974H51.7822V178.303H54.704V181.974ZM58.273 172.654H55.3492V168.981H58.273V172.654V172.654ZM75.0166 129.208H76.8104V132.961H75.0166V129.208ZM75.0166 138.693H76.8104V142.449H75.0166V138.693ZM75.0166 148.184H76.8104V151.937H75.0166V148.184ZM70.1368 129.208H71.9305V132.961H70.1368V129.208ZM70.1368 138.693H71.9305V142.449H70.1368V138.693ZM70.1368 148.184H71.9305V151.937H70.1368V148.184ZM65.6534 129.208H67.4451V132.961H65.6534V129.208V129.208ZM65.6534 138.693H67.4451V142.449H65.6534V138.693V138.693ZM65.6534 148.184H67.4451V151.937H65.6534V148.184V148.184ZM65.6534 157.674H67.4451V161.427H65.6534V157.674V157.674ZM69.7751 179.749H66.539V177.499H69.7751V179.749ZM69.7751 174.763H66.539V172.511H69.7751V174.763ZM69.7751 169.773H66.539V167.521H69.7751V169.773ZM70.1368 157.674H71.9305V161.427H70.1368V157.674ZM74.7434 179.749H71.5072V177.499H74.7434V179.749ZM74.7434 174.763H71.5072V172.511H74.7434V174.763ZM74.7434 169.773H71.5072V167.521H74.7434V169.773ZM75.0166 157.674H76.8104V161.427H75.0166V157.674ZM79.7137 179.749H76.4755V177.499H79.7137V179.749ZM79.7137 174.763H76.4755V172.511H79.7137V174.763ZM79.7137 169.773H76.4755V167.521H79.7137V169.773ZM84.6798 179.749H81.4437V177.499H84.6798V179.749ZM84.6798 174.763H81.4437V172.511H84.6798V174.763ZM84.6798 169.773H81.4437V167.521H84.6798V169.773ZM89.6481 179.749H86.414V177.499H89.6481V179.749ZM89.6481 174.763H86.414V172.511H89.6481V174.763ZM89.6481 169.773H86.414V167.521H89.6481V169.773ZM104.45 173.642V174.763H101.319V172.511H104.555V173.642H104.45ZM101.319 169.773V167.521H104.45V169.689H104.555V169.773H101.319V169.773ZM100.838 129.208H102.632V132.961H100.838V129.208ZM100.838 138.693H102.632V142.449H100.838V138.693ZM100.838 148.184H102.632V151.937H100.838V148.184ZM96.3546 129.208H98.1483V132.961H96.3546V129.208ZM96.3546 138.693H98.1483V142.449H96.3546V138.693ZM96.3546 148.184H98.1483V151.937H96.3546V148.184ZM96.3546 157.674H98.1483V161.427H96.3546V157.674ZM94.6184 179.749H91.3822V177.499H94.6184V179.749ZM94.6184 174.763H91.3822V172.511H94.6184V174.763ZM94.6184 169.773H91.3822V167.521H94.6184V169.773ZM99.5845 179.749H96.3484V177.499H99.5845V179.749ZM99.5845 174.763H96.3484V172.511H99.5845V174.763ZM99.5845 169.773H96.3484V167.521H99.5845V169.773ZM100.838 157.674H102.632V161.427H100.838V157.674ZM104.555 179.749H101.319V177.499H104.555V179.749ZM118.206 181.059H115.576V178.586H118.204V181.059H118.206ZM118.206 173.192H115.576V170.715H118.204V173.192H118.206ZM118.206 165.32H115.576V162.844H118.204V165.32H118.206ZM118.206 157.449H115.576V154.975H118.204V157.449H118.206ZM125.356 181.059H122.729V178.586H125.356V181.059V181.059ZM125.356 173.192H122.729V170.715H125.356V173.192V173.192ZM125.356 165.32H122.729V162.844H125.356V165.32V165.32ZM125.356 157.449H122.729V154.975H125.356V157.449V157.449ZM140.411 182.53H137.489V179.987H140.411V182.53ZM144.305 172.08H141.385V169.539H144.305V172.08ZM148.205 182.53H145.283V179.987H148.205V182.53ZM171.862 160.884C172.187 162.835 172.54 164.846 172.937 166.899L165.228 161.234H171.862V160.884ZM167.909 112.943L164.237 115.202L160.561 112.943H167.909ZM161.303 111.381L164.243 109.742L167.182 111.381H161.303ZM165.308 148.036L169.764 143.999C169.859 145.225 169.978 146.579 170.128 148.036H165.308ZM170.223 148.94C170.241 149.11 170.26 149.283 170.278 149.458C170.428 150.822 170.605 152.264 170.802 153.773L165.47 148.942H170.223V148.94ZM168.215 120.131L164.237 122.58L160.255 120.131H168.215ZM160.414 118.571L164.239 116.219L168.063 118.571H160.414ZM169.514 120.353C169.514 122.076 169.514 123.943 169.514 125.827L165.063 123.087L169.514 120.353ZM168.367 126.14H160.107L164.239 123.596L168.367 126.14ZM168.604 127.7L164.239 130.384L159.871 127.7H168.604ZM169.514 128.159C169.514 130.071 169.514 131.944 169.514 133.63L165.063 130.893L169.514 128.159ZM168.825 134.225H159.643L164.237 131.403L168.825 134.225ZM168.375 135.787L164.239 138.332L160.101 135.787H168.375ZM168.211 141.793H160.264L164.239 139.349L168.211 141.793ZM169.169 143.354L164.239 147.821L159.306 143.354H169.169ZM165.063 138.841L169.514 136.108C169.514 137.086 169.514 137.949 169.514 138.65C169.514 139.459 169.545 140.46 169.608 141.638L165.063 138.841ZM169.514 118.446L165.063 115.71L169.514 112.972C169.514 114.021 169.514 116.005 169.514 118.446ZM163.409 115.711L159.092 118.367C159.092 117.266 159.092 116.264 159.092 115.399C159.092 114.418 159.092 113.617 159.092 113.058L163.409 115.711ZM163.409 123.089L159.092 125.746C159.092 124.821 159.092 123.898 159.092 122.994C159.092 122.117 159.092 121.257 159.092 120.433L163.409 123.089ZM163.409 130.895L159.092 133.551C159.092 131.909 159.092 130.096 159.092 128.238L163.409 130.895ZM163.409 138.841L159.002 141.552C159.064 140.414 159.094 139.438 159.094 138.648C159.094 137.967 159.094 137.131 159.094 136.183L163.409 138.841ZM163.165 148.036H158.478C158.558 147.257 158.63 146.506 158.694 145.791C158.745 145.207 158.792 144.646 158.836 144.108L163.165 148.036ZM163.002 148.94L157.821 153.637C158.036 151.986 158.223 150.415 158.381 148.94H163.002ZM164.239 149.005L170.989 155.12C171.005 155.251 171.024 155.378 171.042 155.508L164.48 160.328H163.995L157.551 155.596C157.58 155.392 157.609 155.186 157.638 154.986L164.239 149.005ZM171.77 160.328H165.951L171.18 156.486C171.361 157.733 171.556 159.018 171.77 160.328ZM178.306 141.793H171.279C171.275 141.733 171.271 141.672 171.266 141.613C171.203 140.432 171.172 139.433 171.172 138.646C171.172 138.051 171.172 137.338 171.172 136.534L178.306 141.793ZM178.306 126.14H171.172C171.172 125.082 171.172 124.025 171.172 122.994C171.172 122.276 171.172 121.568 171.172 120.882L178.306 126.14ZM173.231 107.437L169.939 111.379H168.953L165.131 109.247L168.38 107.437H173.231V107.437ZM166.604 107.437L164.246 108.75L161.891 107.437H166.604ZM155.373 107.437H160.114L163.354 109.247L159.522 111.379H158.663L155.373 107.437ZM150.296 126.14L157.432 120.882C157.432 122.553 157.432 124.343 157.432 126.14H150.296ZM150.296 141.793L157.432 136.536C157.432 137.34 157.432 138.053 157.432 138.648C157.432 139.434 157.401 140.433 157.336 141.615C157.332 141.674 157.329 141.734 157.325 141.795H150.296V141.793ZM157.41 156.573L162.522 160.33H156.834C157.04 159.048 157.233 157.794 157.41 156.573ZM156.684 161.236H163.247L155.688 166.79C156.054 164.898 156.382 163.043 156.684 161.236ZM156.775 178.579L153.604 176.33C153.732 175.799 153.867 175.269 153.993 174.74H162.565L156.775 178.579ZM154.202 173.834C154.595 172.125 154.96 170.424 155.301 168.746L163.019 173.834H154.202ZM164.264 173.612L155.624 167.916L164.239 161.588L172.853 167.916L164.264 173.612ZM173.288 168.672C173.631 170.372 174.003 172.098 174.4 173.832H165.503L173.288 168.672ZM165.969 174.74H174.363L172.004 175.855V178.718L165.969 174.74ZM181.484 181.073H179.2V178.425H181.484V181.073ZM184.649 173.079H182.366V170.431H184.649V173.079ZM187.977 181.073H185.694V178.425H187.977V181.073ZM191.306 173.079H189.023V170.431H191.306V173.079ZM194.47 181.073H192.185V178.425H194.47V181.073ZM198.631 148.652H200.698V151.367H198.631V148.652ZM198.631 154.909H200.698V157.626H198.631V154.909ZM198.631 161.168H200.698V163.883H198.631V161.168ZM198.631 167.427H200.698V170.14H198.631V167.427ZM200.698 173.682V175.396L198.631 174.416V173.682H200.698ZM206.798 182.655H204.731V179.942H206.798V182.655ZM206.798 176.396H204.731V173.683H206.798V176.396ZM206.798 170.14H204.731V167.427H206.798V170.14ZM206.798 163.883H204.731V161.168H206.798V163.883ZM206.798 157.626H204.731V154.909H206.798V157.626ZM206.798 151.367H204.731V148.652H206.798V151.367ZM206.798 144.204H204.731V142.46H206.798V144.204ZM212.901 182.655H210.834V179.942H212.901V182.655ZM212.901 176.396H210.834V173.683H212.901V176.396ZM212.901 170.14H210.834V167.427H212.901V170.14ZM212.901 163.883H210.834V161.168H212.901V163.883ZM212.901 157.626H210.834V154.909H212.901V157.626ZM212.901 151.367H210.834V148.652H212.901V151.367ZM216.311 181.742H215.997V179.933H216.311V181.742ZM216.311 176.679H215.997V174.868H216.311V176.679ZM216.311 171.612H215.997V169.804H216.311V171.612ZM216.311 166.544H215.997V164.737H216.311V166.544ZM216.311 161.481H215.997V159.67H216.311V161.481ZM216.311 156.412H215.997V154.604H216.311V156.412ZM216.311 151.346H215.997V149.539H216.311V151.346ZM226.694 178.913H222.358V175.894H226.694V178.913ZM226.694 169.864H222.358V166.849H226.694V169.864ZM226.694 160.816H222.358V157.801H226.694V160.816ZM226.694 151.771H222.358V148.753H226.694V151.771ZM226.694 142.723H222.358V139.704H226.694V142.723ZM226.694 133.674H222.358V130.659H226.694V133.674ZM226.694 124.628H222.358V121.609H226.694V124.628Z" fill="#f7b52c"/>
<path d="M580.969 160.62H579.194V161.39H580.969H581.859V160.62V159.072H580.969V160.62Z" fill="#f7b52c"/>
<path d="M1047.55 169.566V161.601L1032.74 157.194V161.02L1019.87 157.194V161.02L1007.65 157.387V130.288L1002.75 118.671V110.942V105.271V102.572H998.981V105.271H989.93V102.572H986.159V105.271V110.942V118.671L981.257 130.288V157.612H966.642C967.934 126.025 967.158 99.2108 948.38 83.9306C931.443 97.7114 929.15 120.88 929.81 148.465H920.489V137.438H901.003V113.942C898.147 111.955 892.433 109.966 892.433 109.966V98.5388C874.152 100.526 865.011 110.465 865.011 115.433C865.011 119.44 865.011 145.259 865.011 164.28H856.313V164.564H856.05V160.852H859.796V156.514H856.05V152.799H859.796V148.465H856.05V144.749H859.796V140.416H856.05V136.7H859.796V132.366H856.05V128.651H859.796V124.317H849.26V111.93H834.382V124.317H823.845V128.651H827.591V132.366H823.845V136.7H827.591V140.416H823.845V144.749H827.591V148.465H823.845V152.799H827.591V156.514H825.534V154.136H795.68V157.565H797.369V172.753H788.64V115.98V102.621V87.0349H783.522V105.262L761.336 116.721V144.104H752.264L751.37 140.325C752.184 139.788 752.71 138.939 752.71 137.983C752.71 136.361 751.198 135.045 749.332 135.045C747.464 135.045 745.954 136.362 745.954 137.983C745.954 138.939 746.482 139.788 747.294 140.325L746.4 144.104H726.065V148.513H729.443V157.086H726.065V161.495H729.443V161.974H710.677C708.795 153.33 708.335 147.402 708.335 147.402H711.663L712.851 135.454H705.243C703.34 122.226 703.461 110.981 703.461 110.981H705.719V103.357H702.152V93.1345V87.4245H699.537V69.9889H697.872V87.4245H695.259V93.1345V103.357H691.692V110.981H693.95C693.95 110.981 694.069 122.228 692.169 135.454H684.558L685.748 147.402H689.078C689.078 147.402 688.31 157.245 684.726 170.072V161.215H667.948V137.201L664.069 134.388V131.015L661.484 129.14C661.484 128.39 659.974 124.081 654.586 124.081C649.199 124.081 647.691 128.392 647.691 129.14L645.106 131.015V134.388L641.227 137.201V165.776L636.554 162.459L631.379 166.133L629.751 122.844H632.305L636.16 106.513H629.139L627.232 55.7649H629.172L631.863 44.3628H626.805L626.03 23.7282H623.345V10.1654H624.524V6.21218H623.345V0H620.518V6.21218H619.34V10.1654H620.518V23.7282H617.836L617.062 44.3628H612.001L614.692 55.7649H616.634L614.725 106.513H607.704L611.559 122.844H614.113L612.625 162.459H601.427V165.397H589.845V153.639H572.382V165.397H561.486V153.639H546.134V150.1L535.149 138.954L524.451 149.811L513.752 138.954L502.767 150.1V170.982H498.699V131.362H468.834V78.6138H461.974V75.4719H468.834V72.9592H437.057V75.4719H443.917V78.6138H437.057V175.399L435.257 174.125V169.734L436.553 170.653V168.81L427.601 162.459L418.651 168.81V170.653L419.945 169.734V174.125L413.173 178.929V125.718L396.507 120.759L385.102 124.957V146.98H380.17L375.089 141.894L370.004 146.98H366.451V101.784L355.82 98.5675L345.189 101.784V109.825H337.795H330.4V101.784L319.769 98.5675L309.138 101.784V163.347H304.161V137.685L283.88 128.461V138.486H281.498V87.4263H277.196V80.8423H273.466V75.9527H268.88V59.643H266.585V75.9527H261.997V80.8423H258.27V87.4263H253.969V129.45C253.563 128.649 253.121 127.882 252.638 127.169H242.139C236.453 135.542 236.453 150.758 236.453 155.324C236.453 159.89 236.453 185 236.453 185H253.972H258.327H280.189H281.498H309.136H310.615H362.124H366.449H385.098H388.046H413.169V180.777L413.534 180.52V185H419.941H426.35H428.846H435.252H437.052H441.661H468.275H468.83H484.051H498.695H502.763H505.451H541.077H546.13H558.579H561.482H601.423H603.64H611.775H613.178H616.85L621.929 173.666L627.006 185H628.897H632.083H641.225H644.206H666.066H667.948H679.567H684.726H691.217C691.217 185 692.762 172.225 698.707 172.225C702.467 172.225 704.466 177.338 705.429 181.093V185H706.198H717.848H729.447H737.306H755.176H759.864H761.336H767.5H788.64H797.369H805.672H823.845H856.313H859.796H865.009H868.635H895.186H900.999H916.316H920.485H924.358H931.33H958.54H965.415H981.251H982.124H1007H1007.65H1041.99H1047.55H1052V169.568H1047.55V169.566ZM627.345 46.5342H628.568V48.6591H627.345V46.5342ZM616.517 48.6609H615.297V46.536H616.517V48.6609ZM252.229 140.778H253.982V144.111H252.229V140.778ZM252.229 148.465H253.982V151.8H252.229V148.465ZM252.229 156.152H253.982V159.486H252.229V156.152ZM252.229 163.842H253.982V167.177H252.229V163.842ZM252.229 171.528H253.982V174.863H252.229V171.528ZM242.568 182.553H240.598V179.219H242.568V182.553ZM242.568 174.863H240.598V171.528H242.568V174.863ZM242.568 167.177H240.598V163.842H242.568V167.177ZM242.568 159.486H240.598V156.152H242.568V159.486ZM242.568 151.8H240.598V148.465H242.568V151.8ZM242.568 144.111H240.598V140.778H242.568V144.111ZM248.383 182.553H246.412V179.219H248.383V182.553ZM248.383 174.863H246.412V171.528H248.383V174.863ZM248.383 167.177H246.412V163.842H248.383V167.177ZM248.383 159.486H246.412V156.152H248.383V159.486ZM248.383 151.8H246.412V148.465H248.383V151.8ZM248.383 144.111H246.412V140.778H248.383V144.111ZM248.383 136.423H246.412V133.088H248.383V136.423ZM252.229 182.553V179.219H253.982V182.553H252.229ZM261.843 179.76H259.437V174.055H261.843V179.76ZM261.843 166.61H259.437V160.907H261.843V166.61ZM261.843 153.464H259.437V147.761H261.843V153.464ZM261.843 140.316H259.437V134.613H261.843V140.316ZM261.843 127.167H259.437V121.465H261.843V127.167ZM261.843 114.017H259.437V108.316H261.843V114.017ZM261.843 100.873H259.437V95.1701H261.843V100.873ZM268.948 179.76H266.54V174.055H268.948V179.76ZM268.948 166.61H266.54V160.907H268.948V166.61ZM268.948 153.464H266.54V147.761H268.948V153.464ZM268.948 140.316H266.54V134.613H268.948V140.316ZM268.948 127.167H266.54V121.465H268.948V127.167ZM268.948 114.017H266.54V108.316H268.948V114.017ZM268.948 100.873H266.54V95.1701H268.948V100.873ZM276.051 179.76H273.643V174.055H276.051V179.76ZM276.051 166.61H273.643V160.907H276.051V166.61ZM276.051 153.464H273.643V147.761H276.051V153.464ZM276.051 140.316H273.643V134.613H276.051V140.316ZM276.051 127.167H273.643V121.465H276.051V127.167ZM276.051 114.017H273.643V108.316H276.051V114.017ZM276.051 100.873H273.643V95.1701H276.051V100.873ZM285.994 181.142H283.514V176.847H285.994V181.142ZM285.994 171.241H283.514V166.944H285.994V171.241ZM285.994 161.342H283.514V157.045H285.994V161.342ZM285.994 151.441H283.514V147.144H285.994V151.441ZM293.304 181.142H290.826V176.847H293.304V181.142ZM293.304 171.241H290.826V166.944H293.304V171.241ZM293.304 161.342H290.826V157.045H293.304V161.342ZM293.304 151.441H290.826V147.144H293.304V151.441ZM300.615 181.142H298.139V176.847H300.615V181.142ZM300.615 171.241H298.139V166.944H300.615V171.241ZM300.615 161.342H298.139V157.045H300.615V161.342ZM300.615 151.441H298.139V147.144H300.615V151.441ZM322.078 178.273H318.723V172.436H322.078V178.273ZM322.078 164.934H318.723V159.099H322.078V164.934ZM322.078 151.593H318.723V145.759H322.078V151.593ZM322.078 138.255H318.723V132.422H322.078V138.255ZM322.078 124.916H318.723V119.079H322.078V124.916ZM323.358 108.915H316.196V104.787L319.777 103.702L323.358 104.787V108.915ZM333.285 178.273H329.931V172.436H333.285V178.273ZM333.285 164.934H329.931V159.099H333.285V164.934ZM333.285 151.593H329.931V145.759H333.285V151.593ZM333.285 138.255H329.931V132.422H333.285V138.255ZM333.285 124.916H329.931V119.079H333.285V124.916ZM345.672 178.273H342.319V172.436H345.672V178.273ZM345.672 164.934H342.319V159.099H345.672V164.934ZM345.672 151.593H342.319V145.759H345.672V151.593ZM345.672 138.255H342.319V132.422H345.672V138.255ZM345.672 124.916H342.319V119.079H345.672V124.916ZM356.881 178.273H353.525V172.436H356.881V178.273ZM356.881 164.934H353.525V159.099H356.881V164.934ZM356.881 151.593H353.525V145.759H356.881V151.593ZM356.881 138.255H353.525V132.422H356.881V138.255ZM356.881 124.916H353.525V119.079H356.881V124.916ZM359.408 108.915H352.245V104.787L355.826 103.702L359.408 104.787V108.915ZM368.6 178.407H366.655V175.021H368.6V178.407ZM368.6 170.78H366.655V167.395H368.6V170.78ZM368.6 163.159H366.655V159.771H368.6V163.159ZM368.6 155.531H366.655V152.143H368.6V155.531ZM376.067 178.407H374.119V175.021H376.067V178.407ZM376.067 170.78H374.119V167.395H376.067V170.78ZM376.067 163.159H374.119V159.771H376.067V163.159ZM376.067 155.531H374.119V152.143H376.067V155.531ZM383.534 178.407H381.586V175.021H383.534V178.407ZM383.534 170.78H381.586V167.395H383.534V170.78ZM383.534 163.159H381.586V159.771H383.534V163.159ZM383.534 155.531H381.586V152.143H383.534V155.531ZM400.978 178.663H399.236V174.745L400.978 174.797V178.663ZM400.978 170.068L399.236 169.959V166.042L400.978 166.199V170.068ZM400.978 161.474L399.236 161.256V157.34L400.978 157.605V161.474ZM400.978 152.876L399.236 152.552V148.637L400.978 149.01V152.876ZM400.978 144.281L399.236 143.849V139.933L400.978 140.416V144.281ZM400.978 135.687L399.236 135.145V131.23L400.978 131.821V135.687ZM405.868 178.663H404.247V174.885L405.868 174.933V178.663ZM405.868 170.374L404.247 170.27V166.496L405.868 166.641V170.374ZM405.868 162.08L404.247 161.878V158.101L405.868 158.348V162.08ZM405.868 153.791L404.247 153.489V149.711L405.868 150.059V153.791ZM405.868 145.5L404.247 145.094V141.32L405.868 141.77V145.5ZM405.868 137.208L404.247 136.702V132.927L405.868 133.476V137.208ZM410.424 178.663H408.913V175.017L410.424 175.058V178.663ZM410.424 170.656L408.913 170.562V166.914L410.424 167.05V170.656ZM410.424 162.648L408.913 162.459V158.813L410.424 159.041V162.648ZM410.424 154.641L408.913 154.359V150.713L410.424 151.037V154.641ZM410.424 146.633L408.913 146.258V142.612L410.424 143.03V146.633ZM410.424 138.625L408.913 138.157V134.511L410.424 135.024V138.625ZM425.168 182.53H422.244V179.987H425.168V182.53ZM429.064 172.081H426.142V169.539H429.064V172.081ZM432.961 182.53H430.038V179.987H432.961V182.53ZM446.592 176.897H443.999V170.755H446.592V176.897ZM446.592 162.734H443.999V156.591H446.592V162.734ZM446.592 148.57H443.999V142.43H446.592V148.57ZM446.592 134.411H443.999V128.267H446.592V134.411ZM446.592 120.248H443.999V114.105H446.592V120.248ZM446.592 106.084H443.999V99.9418H446.592V106.084ZM446.592 91.9245H443.999V85.7821H446.592V91.9245ZM454.242 176.897H451.649V170.755H454.242V176.897ZM454.242 162.734H451.649V156.591H454.242V162.734ZM454.242 148.57H451.649V142.43H454.242V148.57ZM454.242 134.411H451.649V128.267H454.242V134.411ZM454.242 120.248H451.649V114.105H454.242V120.248ZM454.242 106.084H451.649V99.9418H454.242V106.084ZM454.242 91.9245H451.649V85.7821H454.242V91.9245ZM461.896 176.897H459.303V170.755H461.896V176.897ZM461.896 162.734H459.303V156.591H461.896V162.734ZM461.896 148.57H459.303V142.43H461.896V148.57ZM461.896 134.411H459.303V128.267H461.896V134.411ZM461.896 120.248H459.303V114.105H461.896V120.248ZM461.896 106.084H459.303V99.9418H461.896V106.084ZM461.896 91.9245H459.303V85.7821H461.896V91.9245ZM480.482 180.412H476.128V176.74H480.482V180.412ZM480.482 167.561H476.128V163.892H480.482V167.561ZM480.482 154.713H476.128V151.042H480.482V154.713ZM480.482 141.865H476.128V138.194H480.482V141.865ZM488.791 180.412H484.438V176.74H488.791V180.412ZM488.791 167.561H484.438V163.892H488.791V167.561ZM488.791 154.713H484.438V151.042H488.791V154.713ZM488.791 141.865H484.438V138.194H488.791V141.865ZM515.474 174.34H511.675V170.846H515.474V174.34ZM515.474 163.609H511.675V160.116H515.474V163.609ZM526.351 174.34H522.55V170.846H526.351V174.34ZM526.351 163.609H522.55V160.116H526.351V163.609ZM537.227 174.34H533.427V170.846H537.227V174.34ZM537.227 163.609H533.427V160.116H537.227V163.609ZM566.644 179.958H564.229V176.288H566.644V179.958ZM566.644 172.778H564.229V169.105H566.644V172.778ZM574.48 179.958H572.068V176.288H574.48V179.958ZM574.48 172.778H572.068V169.105H574.48V172.778ZM582.319 179.958H579.907V176.288H582.319V179.958ZM582.319 172.778H579.907V169.105H582.319V172.778ZM581.115 163.722C579.142 163.722 577.54 162.33 577.54 160.616C577.54 158.9 579.142 157.51 581.115 157.51C583.085 157.51 584.686 158.899 584.686 160.616C584.684 162.33 583.085 163.722 581.115 163.722ZM590.157 179.958H587.745V176.288H590.157V179.958ZM590.157 172.778H587.745V169.105H590.157V172.778ZM597.994 179.958H595.584V176.288H597.994V179.958ZM597.994 172.778H595.584V169.105H597.994V172.778ZM614.434 112.736H612.745V109.794H614.434V112.736ZM616.638 118.119H614.951V115.177H616.638V118.119ZM624.335 46.5342H625.556V48.6591H624.335V46.5342ZM621.323 46.5342H622.543V48.6591H621.323V46.5342ZM619.901 50.423H621.122V52.548H619.901V50.423ZM618.309 46.5342H619.531V48.6591H618.309V46.5342ZM616.891 50.423H618.111V52.548H616.891V50.423ZM618.605 112.736H616.918V109.794H618.605V112.736ZM620.809 118.119H619.122V115.177H620.809V118.119ZM622.778 112.736H621.089V109.794H622.778V112.736ZM622.915 50.423H624.136V52.548H622.915V50.423ZM624.982 118.119H623.293V115.177H624.982V118.119ZM626.949 112.736H625.26V109.794H626.949V112.736ZM627.148 52.548H625.927V50.423H627.148V52.548ZM629.429 109.794H631.12V112.736H629.429V109.794ZM627.462 115.177H629.151V118.119H627.462V115.177ZM637.816 181.118H634.892V178.296H637.816V181.118ZM637.816 172.93H634.892V170.104H637.816V172.93ZM648.42 178.604H646.472V175.498H648.42V178.604ZM648.42 170.558H646.472V167.448H648.42V170.558ZM648.42 162.509H646.472V159.401H648.42V162.509ZM648.42 154.459H646.472V151.353H648.42V154.459ZM648.42 146.412H646.472V143.304H648.42V146.412ZM655.562 178.604H653.614V175.498H655.562V178.604ZM655.562 170.558H653.614V167.448H655.562V170.558ZM655.562 162.509H653.614V159.401H655.562V162.509ZM655.562 154.459H653.614V151.353H655.562V154.459ZM655.562 146.412H653.614V143.304H655.562V146.412ZM655.562 139.068H653.614V135.962H655.562V139.068ZM662.706 178.604H660.756V175.498H662.706V178.604ZM662.706 170.558H660.756V167.448H662.706V170.558ZM662.706 162.509H660.756V159.401H662.706V162.509ZM662.706 154.459H660.756V151.353H662.706V154.459ZM662.706 146.412H660.756V143.304H662.706V146.412ZM691.721 144.59H688.585V142.36H691.721V144.59ZM691.721 140.455H688.585V138.221H691.721V140.455ZM702.218 106.124H704.069V108.604H702.218V106.124ZM693.346 108.604V106.124H695.199V108.604H693.346ZM697.424 144.59H694.289V142.36H697.424V144.59ZM697.424 140.455H694.289V138.221H697.424V140.455ZM699.633 108.604H697.782V106.124H699.633V108.604ZM703.128 144.59H699.993V142.36H703.128V144.59ZM703.128 140.455H699.993V138.221H703.128V140.455ZM705.697 138.221H708.832V140.455H705.697V138.221ZM705.697 142.358H708.832V144.589H705.697V142.358ZM741.354 179.74H737.783V176.634H741.354V179.74ZM741.354 167.127H737.783V164.021H741.354V167.127ZM741.354 154.513H737.783V151.407H741.354V154.513ZM749.745 140.902C750.051 140.87 750.347 140.802 750.624 140.702L751.428 144.104H749.745V140.902ZM748.048 140.703C748.323 140.803 748.617 140.87 748.925 140.904V144.108H747.242L748.048 140.703ZM751.528 179.74H747.955V176.634H751.528V179.74ZM751.528 167.127H747.955V164.021H751.528V167.127ZM751.528 154.513H747.955V151.407H751.528V154.513ZM759.864 148.517H761.336V157.09H759.864V148.517ZM761.338 161.499V164.281H759.866V161.499H761.338ZM769.458 180.888H767.502V175.803H769.458V180.888ZM769.458 169.589H767.502V164.505H769.458V169.589ZM769.458 158.293H767.195V153.208H769.458V158.293ZM769.458 146.994H767.195V141.912H769.458V146.994ZM769.458 135.698H767.195V130.611H769.458V135.698ZM769.458 124.399H767.195V119.313H769.458V124.399ZM776.121 180.888H773.859V175.803H776.121V180.888ZM776.121 169.589H773.859V164.505H776.121V169.589ZM776.121 158.293H773.859V153.208H776.121V158.293ZM776.121 146.994H773.859V141.912H776.121V146.994ZM776.121 135.698H773.859V130.611H776.121V135.698ZM776.121 124.399H773.859V119.313H776.121V124.399ZM782.782 180.888H780.522V175.803H782.782V180.888ZM782.782 169.589H780.522V164.505H782.782V169.589ZM782.782 158.293H780.522V153.208H782.782V158.293ZM782.782 146.994H780.522V141.912H782.782V146.994ZM782.782 135.698H780.522V130.611H782.782V135.698ZM782.782 124.399H780.522V119.313H782.782V124.399ZM808.867 173.669H805.672V172.753H805.538V170.295H808.867V173.669ZM808.867 166.326H805.538V162.952H808.867V166.326ZM815.795 173.669H812.464V170.295H815.795V173.669ZM815.795 166.326H812.464V162.952H815.795V166.326ZM827.591 180.666H823.845V176.952H827.591V180.666ZM827.591 172.619H823.845V168.901H827.591V172.619ZM827.591 164.566H823.845V160.854H827.591V164.566ZM834.382 180.666H829.699V176.952H834.382V180.666ZM834.382 172.619H829.699V168.901H834.382V172.619ZM834.382 164.566H829.699V160.854H834.382V164.566ZM834.382 156.514H829.699V152.799H834.382V156.514ZM834.382 148.465H829.699V144.749H834.382V148.465ZM834.382 140.416H829.699V136.7H834.382V140.416ZM834.382 132.366H829.699V128.651H834.382V132.366ZM856.05 168.899H856.313V172.617H856.05V168.899ZM843.402 119.783H840.24V116.114H843.402V119.783ZM853.942 180.666H849.26V176.952H853.942V180.666ZM853.942 172.619H849.26V168.901H853.942V172.619ZM853.942 164.566H849.26V160.854H853.942V164.566ZM853.942 156.514H849.26V152.799H853.942V156.514ZM853.942 148.465H849.26V144.749H853.942V148.465ZM853.942 140.416H849.26V136.7H853.942V140.416ZM853.942 132.366H849.26V128.651H853.942V132.366ZM856.05 180.666V176.952H856.313V180.666H856.05ZM874.873 177.984H871.555V172.692H874.873V177.984ZM874.873 165.784H871.555V160.491H874.873V165.784ZM874.873 153.583H871.555V148.292H874.873V153.583ZM874.873 141.384H871.555V136.092H874.873V141.384ZM874.873 129.183H871.555V123.89H874.873V129.183ZM874.873 116.982H871.555V111.692H874.873V116.982ZM884.666 177.984H881.346V172.692H884.666V177.984ZM884.666 165.784H881.346V160.491H884.666V165.784ZM884.666 153.583H881.346V148.292H884.666V153.583ZM884.666 141.384H881.346V136.092H884.666V141.384ZM884.666 129.183H881.346V123.89H884.666V129.183ZM884.666 116.982H881.346V111.692H884.666V116.982ZM894.461 177.984H891.138V172.692H894.461V177.984ZM894.461 165.784H891.138V160.491H894.461V165.784ZM894.461 153.583H891.138V148.292H894.461V153.583ZM894.461 141.384H891.138V136.092H894.461V141.384ZM894.461 129.183H891.138V123.89H894.461V129.183ZM955.838 110.649H958.544V115.647H955.838V110.649ZM955.838 121.531H958.544V126.533H955.838V121.531ZM955.838 132.413H958.544V137.415H955.838V132.413ZM955.838 143.3H958.544V148.299H955.838V143.3ZM940.282 180.95H937.58V175.948H940.282V180.95ZM940.282 170.066H937.58V165.064H940.282V170.066ZM940.282 159.181H937.58V154.182H940.282V159.181ZM940.282 148.299H937.58V143.3H940.282V148.299ZM940.282 137.415H937.58V132.413H940.282V137.415ZM940.282 126.533H937.58V121.531H940.282V126.533ZM940.282 115.647H937.58V110.649H940.282V115.647ZM949.752 180.95H947.048V175.948H949.752V180.95ZM949.752 170.066H947.048V165.064H949.752V170.066ZM949.752 159.181H947.048V154.182H949.752V159.181ZM949.752 148.299H947.048V143.3H949.752V148.299ZM949.752 137.415H947.048V132.413H949.752V137.415ZM949.752 126.533H947.048V121.531H949.752V126.533ZM949.752 115.647H947.048V110.649H949.752V115.647ZM949.752 104.765H947.048V99.7648H949.752V104.765ZM958.544 180.95H955.838V175.948H958.544V180.95ZM958.544 170.066H955.838V165.064H958.544V170.066ZM958.544 159.181H955.838V154.182H958.544V157.612V159.181ZM989.12 180.105H986.94V176.316H989.12V180.105ZM989.12 171.368H986.94V167.579H989.12V171.368ZM989.12 162.632H986.94V158.843H989.12V162.632ZM989.12 153.9H986.94V150.109H989.12V153.9ZM989.12 145.162H986.94V141.374H989.12V145.162ZM989.12 136.427H986.94V132.638H989.12V136.427ZM995.543 180.105H993.365V176.316H995.543V180.105ZM995.543 171.368H993.365V167.579H995.543V171.368ZM995.543 162.632H993.365V158.843H995.543V162.632ZM995.543 153.9H993.365V150.109H995.543V153.9ZM995.543 145.162H993.365V141.374H995.543V145.162ZM995.543 136.427H993.365V132.638H995.543V136.427ZM995.543 127.693H993.365V123.902H995.543V127.693ZM995.543 116.03H993.365V112.239H995.543V116.03ZM1001.97 180.105H999.788V176.316H1001.97V180.105ZM1001.97 171.368H999.788V167.579H1001.97V171.368ZM1001.97 162.632H999.788V158.843H1001.97V162.632ZM1001.97 153.9H999.788V150.109H1001.97V153.9ZM1001.97 145.162H999.788V141.374H1001.97V145.162ZM1001.97 136.427H999.788V132.638H1001.97V136.427ZM1017.7 173.805H1014.44V169.552H1017.7V173.805ZM1028.91 173.805H1025.65V169.552H1028.91V173.805ZM1040.11 173.805H1036.85V169.552H1040.11V173.805Z" fill="#f7b52c"/>
</svg>
