<svg width="100" height="100" viewBox="0 0 100 100" fill="none" xmlns="http://www.w3.org/2000/svg">
<path d="M50 15.5377C51.9341 15.5377 53.2525 11.3137 53.7545 7.05372C54.3831 1.7168 52.1284 0 50 0C47.8682 0 45.6167 1.7168 46.2419 7.05372C46.7443 11.3137 48.0594 15.5377 50 15.5377Z" fill="#E70909"/>
<path d="M50 84.4607C48.0593 84.4607 46.7442 88.6849 46.242 92.9462C45.617 98.2816 47.8685 100 50 100C52.1285 100 54.3831 98.2816 53.7546 92.9462C53.2526 88.6849 51.9342 84.4607 50 84.4607Z" fill="#E70909"/>
<path d="M32.6422 20.1103C34.3203 19.1464 33.3517 14.8236 31.6543 10.8876C29.5291 5.95246 26.7204 5.59445 24.8738 6.65695C23.0272 7.72433 21.9388 10.337 25.1461 14.6468C27.7148 18.0806 30.964 21.0804 32.6422 20.1103Z" fill="#E70909"/>
<path d="M67.3544 79.8899C65.6797 80.8521 66.645 85.1751 68.3393 89.1142C70.4677 94.0478 73.2765 94.4056 75.1229 93.3415C76.9664 92.2774 78.0614 89.6614 74.851 85.3532C72.2852 81.9196 69.0327 78.9214 67.3544 79.8899Z" fill="#E70909"/>
<path d="M14.6398 25.149C10.3344 21.9421 7.72 23.0353 6.65411 24.8787C5.58842 26.725 5.94801 29.532 10.8819 31.6603C14.8212 33.3562 19.1428 34.3199 20.1083 32.6484C21.0769 30.9687 18.0738 27.7146 14.6398 25.149Z" fill="#E70909"/>
<path d="M89.1116 68.3415C85.1788 66.6424 80.8539 65.6803 79.8886 67.352C78.9198 69.0317 81.9229 72.2856 85.3571 74.851C89.6656 78.0581 92.2767 76.9663 93.3394 75.1215C94.4084 73.2766 94.0489 70.4682 89.1116 68.3415Z" fill="#E70909"/>
<path d="M15.534 49.9984C15.534 48.0645 11.3062 46.7477 7.04946 46.2439C1.71378 45.6172 0 47.8717 0 49.9984C0 52.1315 1.71378 54.3828 7.04946 53.7578C11.3062 53.2572 15.534 51.9371 15.534 49.9984Z" fill="#E70909"/>
<path d="M92.9472 46.2421C88.6903 46.7475 84.4658 48.0628 84.4658 49.9983C84.4658 51.937 88.6903 53.254 92.9472 53.7559C98.2862 54.3844 100 52.1298 100 49.9983C100 47.8684 98.2862 45.6171 92.9472 46.2421Z" fill="#E70909"/>
<path d="M10.8819 68.3415C5.94801 70.4682 5.58842 73.2766 6.65411 75.1215C7.72332 76.9663 10.3344 78.0581 14.6398 74.851C18.0738 72.2856 21.0736 69.0315 20.105 67.352C19.1428 65.6803 14.8212 66.6424 10.8819 68.3415Z" fill="#E70909"/>
<path d="M89.1116 31.6602C94.0489 29.5318 94.4084 26.725 93.3394 24.8785C92.2767 23.032 89.6656 21.942 85.3571 25.1488C81.9229 27.7145 78.92 30.9684 79.8886 32.6481C80.8539 34.3195 85.1788 33.3561 89.1116 31.6602Z" fill="#E70909"/>
<path d="M25.1459 85.3532C21.9387 89.6614 23.0271 92.2774 24.8737 93.3415C26.7234 94.4056 29.529 94.0478 31.6542 89.1142C33.3515 85.1751 34.3203 80.8521 32.6421 79.8899C30.9674 78.9214 27.7148 81.9196 25.1459 85.3532Z" fill="#E70909"/>
<path d="M74.851 14.6468C78.0614 10.3369 76.973 7.72437 75.1229 6.65698C73.2765 5.59448 70.4678 5.9523 68.3393 10.8877C66.6451 14.8236 65.6762 19.1464 67.3545 20.1103C69.0294 21.0802 72.2853 18.0804 74.851 14.6468Z" fill="#E70909"/>
<path d="M45.9246 34.3991C47.3856 34.0104 47.5218 30.5782 47.0391 27.2774C46.4399 23.1454 44.4022 22.3065 42.8051 22.7405C41.2014 23.16 39.8537 24.9046 41.3958 28.7852C42.6332 31.8854 44.4766 34.796 45.9246 34.3991Z" fill="#E70909"/>
<path d="M54.0722 65.596C52.624 65.988 52.4783 69.4316 52.9578 72.7277C53.5602 76.8595 55.598 77.6968 57.1983 77.2626C58.7986 76.8335 60.1462 75.0954 58.6043 71.2197C57.37 68.1195 55.5267 65.2089 54.0722 65.596Z" fill="#E70909"/>
<path d="M30.0407 30.1053C28.8778 31.2811 28.5764 33.4516 31.8582 36.0479C34.4693 38.1081 37.5242 39.7085 38.5803 38.6444C39.6462 37.5768 38.0522 34.5286 35.9919 31.9176C33.4036 28.6379 31.2137 28.936 30.0407 30.1053Z" fill="#E70909"/>
<path d="M69.9495 69.8963C71.1223 68.7252 71.4203 66.5467 68.142 63.9522C65.5242 61.892 62.4823 60.2981 61.4166 61.359C60.3571 62.4215 61.951 65.4729 64.0148 68.0856C66.603 71.3622 68.7799 71.0659 69.9495 69.8963Z" fill="#E70909"/>
<path d="M27.2386 46.9921C30.5398 47.4731 33.9803 47.3337 34.3625 45.8761C34.7579 44.4231 31.8452 42.58 28.7485 41.3473C24.8707 39.8056 23.1374 41.1546 22.7032 42.7532C22.2723 44.3472 23.1081 46.388 27.2386 46.9921Z" fill="#E70909"/>
<path d="M72.7583 53.0109C69.4602 52.5348 66.0262 52.6725 65.6311 54.1221C65.2424 55.5768 68.1516 57.4148 71.2486 58.6508C75.1295 60.1959 76.8693 58.8436 77.2971 57.2465C77.7311 55.6461 76.8951 53.6103 72.7583 53.0109Z" fill="#E70909"/>
<path d="M28.7838 58.6069C31.8809 57.3711 34.7934 55.5247 34.4014 54.0668C34.0125 52.6221 30.5722 52.4811 27.2742 52.9622C23.1403 53.5598 22.3047 55.6006 22.7356 57.1944C23.1632 58.7965 24.9029 60.144 28.7838 58.6069Z" fill="#E70909"/>
<path d="M71.2129 41.3961C68.1158 42.64 65.2067 44.4752 65.5985 45.9265C65.9874 47.3808 69.4245 47.5218 72.7257 47.0424C76.8595 46.44 77.6951 44.399 77.2644 42.8068C76.8338 41.2019 75.0971 39.8543 71.2129 41.3961Z" fill="#E70909"/>
<path d="M31.9067 64.0138C28.6348 66.5972 28.9329 68.7886 30.1056 69.9533C31.2783 71.1211 33.4585 71.4209 36.047 68.1423C38.1041 65.5314 39.7044 62.4847 38.6419 61.4173C37.573 60.3533 34.5244 61.9486 31.9067 64.0138Z" fill="#E70909"/>
<path d="M68.0867 35.9927C71.3652 33.4029 71.064 31.2146 69.9009 30.0501C68.7313 28.8759 66.5448 28.5812 63.9595 31.8609C61.8926 34.4769 60.2987 37.5265 61.3613 38.5843C62.4239 39.6484 65.4725 38.0513 68.0867 35.9927Z" fill="#E70909"/>
<path d="M45.8728 65.632C44.4247 65.2431 42.5814 68.1488 41.3471 71.249C39.8017 75.1299 41.1463 76.8742 42.7531 77.2953C44.3536 77.7293 46.3912 76.892 46.9905 72.7601C47.4731 69.4607 47.3272 66.0222 45.8728 65.632Z" fill="#E70909"/>
<path d="M57.2469 22.705C55.6498 22.271 53.6088 23.1083 53.0129 27.2401C52.53 30.5444 52.6726 33.978 54.1239 34.3683C55.5752 34.7636 57.4186 31.8497 58.6527 28.7561C60.195 24.8737 58.8537 23.1376 57.2469 22.705Z" fill="#E70909"/>
<path d="M41.9011 49.9984C41.9011 54.4718 45.5263 58.0968 50.0002 58.0968C54.4708 58.0968 58.0991 54.4718 58.0991 49.9984C58.0991 45.5281 54.4708 41.9031 50.0002 41.9031C45.5261 41.9031 41.9011 45.5281 41.9011 49.9984Z" fill="#E70909"/>
<path d="M50 22L56.9382 39.5989L75 41.099L61.2244 53.4738L65.4511 72L50 62.0495L34.5489 72L38.7757 53.4738L25 41.099L43.0618 39.5989L50 22Z" fill="#DAB300"/>
</svg>
