<svg width="300" height="300" viewBox="0 0 300 300" fill="none" xmlns="http://www.w3.org/2000/svg">
<path d="M149.991 46.6131C155.793 46.6131 159.748 33.941 161.253 21.1611C163.139 5.15039 156.376 0 149.991 0C143.596 0 136.842 5.15039 138.717 21.1611C140.224 33.941 144.169 46.6131 149.991 46.6131Z" fill="#FFB900"/>
<path d="M149.991 253.382C144.169 253.382 140.224 266.055 138.717 278.839C136.842 294.845 143.596 300 149.991 300C156.376 300 163.139 294.845 161.253 278.839C159.748 266.055 155.793 253.382 149.991 253.382Z" fill="#FFB900"/>
<path d="M97.9208 60.3306C102.955 57.439 100.049 44.4704 94.9571 32.6626C88.5821 17.8571 80.1563 16.7831 74.6168 19.9706C69.0774 23.1728 65.8125 31.0108 75.4336 43.9401C83.1393 54.2415 92.8864 63.2409 97.9208 60.3306Z" fill="#FFB900"/>
<path d="M202.051 239.67C197.027 242.556 199.923 255.525 205.005 267.342C211.39 282.143 219.816 283.217 225.355 280.025C230.885 276.832 234.169 268.984 224.539 256.06C216.842 245.759 207.085 236.764 202.051 239.67Z" fill="#FFB900"/>
<path d="M43.9166 75.4462C31.0013 65.8257 23.1585 69.1052 19.9611 74.6353C16.7642 80.1742 17.8429 88.5953 32.6437 94.9802C44.4609 100.068 57.4248 102.959 60.321 97.9445C63.2267 92.9054 54.2179 83.1431 43.9166 75.4462Z" fill="#FFB900"/>
<path d="M267.318 205.024C255.52 199.927 242.546 197.041 239.651 202.056C236.745 207.095 245.753 216.857 256.055 224.553C268.98 234.174 276.813 230.899 280.001 225.365C283.208 219.83 282.129 211.405 267.318 205.024Z" fill="#FFB900"/>
<path d="M46.599 149.996C46.599 144.194 33.9164 140.243 21.1471 138.732C5.14102 136.852 0 143.615 0 149.996C0 156.395 5.14102 163.149 21.1471 161.274C33.9164 159.772 46.599 155.812 46.599 149.996Z" fill="#FFB900"/>
<path d="M278.824 138.726C266.054 140.243 253.382 144.189 253.382 149.995C253.382 155.811 266.054 159.762 278.824 161.268C294.84 163.154 299.981 156.389 299.981 149.995C299.981 143.606 294.84 136.851 278.824 138.726Z" fill="#FFB900"/>
<path d="M32.6437 205.024C17.8429 211.405 16.7642 219.83 19.9611 225.365C23.1685 230.899 31.0013 234.174 43.9166 224.553C54.2179 216.857 63.2167 207.094 60.3111 202.056C57.4248 197.041 44.4609 199.927 32.6437 205.024Z" fill="#FFB900"/>
<path d="M267.318 94.9805C282.129 88.5955 283.208 80.175 280.001 74.6356C276.813 69.0961 268.98 65.826 256.055 75.4465C245.753 83.1434 236.745 92.9051 239.651 97.9442C242.546 102.959 255.52 100.068 267.318 94.9805Z" fill="#FFB900"/>
<path d="M75.433 256.06C65.8119 268.984 69.0768 276.832 74.6162 280.025C80.1651 283.217 88.5815 282.143 94.9565 267.342C100.048 255.525 102.955 242.556 97.9201 239.67C92.8963 236.764 83.1393 245.759 75.433 256.06Z" fill="#FFB900"/>
<path d="M224.539 43.9407C234.169 31.0108 230.904 23.1733 225.354 19.9712C219.816 16.7837 211.39 17.8571 205.005 32.6632C199.922 44.471 197.016 57.4396 202.051 60.3312C207.075 63.2409 216.842 54.2415 224.539 43.9407Z" fill="#FFB900"/>
<path d="M137.765 103.197C142.148 102.031 142.556 91.7344 141.108 81.8321C139.311 69.436 133.198 66.9194 128.407 68.2213C123.596 69.4799 119.554 74.7135 124.179 86.3555C127.891 95.6561 133.421 104.388 137.765 103.197Z" fill="#FFB900"/>
<path d="M162.206 196.788C157.862 197.964 157.425 208.295 158.863 218.183C160.67 230.579 166.784 233.091 171.584 231.788C176.385 230.501 180.427 225.287 175.802 213.659C172.099 204.359 166.57 195.627 162.206 196.788Z" fill="#FFB900"/>
<path d="M90.1166 90.316C86.6279 93.8433 85.7238 100.355 95.5688 108.144C103.402 114.324 112.566 119.125 115.734 115.933C118.931 112.73 114.149 103.586 107.969 95.7529C100.205 85.9138 93.6352 86.808 90.1166 90.316Z" fill="#FFB900"/>
<path d="M209.835 209.689C213.353 206.176 214.247 199.64 204.413 191.857C196.56 185.676 187.435 180.894 184.238 184.077C181.06 187.265 185.841 196.419 192.032 204.257C199.796 214.086 206.327 213.198 209.835 209.689Z" fill="#FFB900"/>
<path d="M81.7108 140.976C91.6137 142.42 101.934 142.001 103.081 137.628C104.267 133.27 95.5296 127.74 86.2401 124.042C74.6075 119.417 69.4079 123.464 68.1053 128.26C66.8128 133.042 69.32 139.164 81.7108 140.976Z" fill="#FFB900"/>
<path d="M218.261 159.033C208.368 157.604 198.066 158.017 196.881 162.366C195.715 166.73 204.442 172.245 213.733 175.952C225.375 180.588 230.593 176.531 231.877 171.739C233.179 166.938 230.671 160.831 218.261 159.033Z" fill="#FFB900"/>
<path d="M86.3461 175.821C95.6368 172.114 104.374 166.574 103.198 162.201C102.031 157.867 91.711 157.444 81.8174 158.887C69.4166 160.68 66.91 166.802 68.2026 171.583C69.4852 176.39 74.7041 180.432 86.3461 175.821Z" fill="#FFB900"/>
<path d="M213.625 124.188C204.335 127.92 195.608 133.425 196.783 137.78C197.95 142.142 208.26 142.566 218.163 141.127C230.564 139.32 233.071 133.197 231.779 128.42C230.487 123.606 225.277 119.563 213.625 124.188Z" fill="#FFB900"/>
<path d="M95.7141 192.041C85.8991 199.791 86.7932 206.366 90.3112 209.86C93.8291 213.363 100.369 214.262 108.134 204.427C114.305 196.594 119.106 187.454 115.918 184.252C112.712 181.06 103.567 185.846 95.7141 192.041Z" fill="#FFB900"/>
<path d="M204.247 107.978C214.082 100.209 213.179 93.644 209.689 90.1506C206.181 86.628 199.622 85.7438 191.866 95.5829C185.666 103.431 180.885 112.58 184.072 115.753C187.26 118.945 196.405 114.154 204.247 107.978Z" fill="#FFB900"/>
<path d="M137.61 196.895C133.266 195.729 127.736 204.446 124.034 213.746C119.398 225.389 123.431 230.622 128.251 231.885C133.052 233.187 139.165 230.675 140.962 218.28C142.41 208.381 141.973 198.066 137.61 196.895Z" fill="#FFB900"/>
<path d="M171.73 68.1147C166.939 66.8127 160.816 69.3246 159.029 81.7201C157.58 91.633 158.008 101.934 162.362 103.105C166.715 104.29 172.245 95.5488 175.947 86.2682C180.574 74.6209 176.55 69.4125 171.73 68.1147Z" fill="#FFB900"/>
<path d="M125.695 149.995C125.695 163.416 136.57 174.291 149.991 174.291C163.402 174.291 174.287 163.416 174.287 149.995C174.287 136.584 163.402 125.709 149.991 125.709C136.57 125.709 125.695 136.584 125.695 149.995Z" fill="#FFB900"/>
<path d="M150 75L170.815 125.212L225 129.492L183.673 164.8L196.353 217.658L150 189.267L103.647 217.658L116.327 164.8L75 129.492L129.185 125.212L150 75Z" fill="#DAB300"/>
</svg>
