<svg width="300" height="300" viewBox="0 0 300 300" fill="none" xmlns="http://www.w3.org/2000/svg">
<path d="M150 46.6131C155.802 46.6131 159.758 33.941 161.264 21.1611C163.149 5.15039 156.385 0 150 0C143.605 0 136.85 5.15039 138.726 21.1611C140.233 33.941 144.178 46.6131 150 46.6131Z" fill="#0DB7E9"/>
<path d="M150 253.382C144.178 253.382 140.232 266.055 138.726 278.839C136.851 294.845 143.605 300 150 300C156.385 300 163.149 294.845 161.264 278.839C159.758 266.055 155.802 253.382 150 253.382Z" fill="#0DB7E9"/>
<path d="M97.9268 60.3306C102.961 57.439 100.055 44.4704 94.9629 32.6626C88.5875 17.8571 80.1612 16.7831 74.6214 19.9706C69.0816 23.1728 65.8165 31.0108 75.4382 43.9401C83.1444 54.2415 92.8921 63.2409 97.9268 60.3306Z" fill="#0DB7E9"/>
<path d="M202.063 239.669C197.039 242.556 199.935 255.525 205.018 267.342C211.403 282.143 219.829 283.216 225.368 280.024C230.899 276.832 234.184 268.984 224.553 256.059C216.855 245.758 207.098 236.764 202.063 239.669Z" fill="#0DB7E9"/>
<path d="M43.9194 75.4467C31.0033 65.8262 23.1601 69.1057 19.9624 74.6358C16.7653 80.1746 17.8441 88.5957 32.6458 94.9807C44.4637 100.068 57.4284 102.959 60.3249 97.945C63.2307 92.9059 54.2214 83.1436 43.9194 75.4467Z" fill="#0DB7E9"/>
<path d="M267.335 205.024C255.536 199.927 242.562 197.041 239.666 202.056C236.759 207.095 245.769 216.857 256.071 224.553C268.997 234.174 276.83 230.899 280.018 225.365C283.225 219.83 282.147 211.405 267.335 205.024Z" fill="#0DB7E9"/>
<path d="M46.6019 149.995C46.6019 144.193 33.9185 140.243 21.1484 138.732C5.14134 136.851 0 143.615 0 149.995C0 156.394 5.14134 163.148 21.1484 161.273C33.9185 159.771 46.6019 155.811 46.6019 149.995Z" fill="#0DB7E9"/>
<path d="M278.842 138.726C266.071 140.243 253.397 144.189 253.397 149.995C253.397 155.811 266.071 159.762 278.842 161.268C294.859 163.154 300 156.389 300 149.995C300 143.606 294.859 136.851 278.842 138.726Z" fill="#0DB7E9"/>
<path d="M32.6458 205.024C17.8441 211.405 16.7653 219.83 19.9624 225.365C23.17 230.899 31.0033 234.174 43.9194 224.553C54.2214 216.857 63.2208 207.094 60.3149 202.056C57.4284 197.041 44.4637 199.927 32.6458 205.024Z" fill="#0DB7E9"/>
<path d="M267.335 94.9805C282.147 88.5955 283.225 80.175 280.018 74.6356C276.83 69.0961 268.997 65.826 256.071 75.4465C245.769 83.1434 236.76 92.9051 239.666 97.9442C242.562 102.959 255.536 100.068 267.335 94.9805Z" fill="#0DB7E9"/>
<path d="M75.4378 256.059C65.8161 268.984 69.0811 276.832 74.6209 280.024C80.1701 283.216 88.587 282.143 94.9624 267.342C100.055 255.525 102.961 242.556 97.9263 239.669C92.9021 236.764 83.1445 245.758 75.4378 256.059Z" fill="#0DB7E9"/>
<path d="M224.553 43.9407C234.184 31.0108 230.919 23.1733 225.369 19.9712C219.829 16.7837 211.403 17.8571 205.018 32.6632C199.935 44.471 197.029 57.4396 202.063 60.3312C207.088 63.2409 216.856 54.2415 224.553 43.9407Z" fill="#0DB7E9"/>
<path d="M137.774 103.197C142.157 102.031 142.565 91.7344 141.117 81.8321C139.32 69.436 133.207 66.9194 128.415 68.2213C123.604 69.4799 119.561 74.7135 124.187 86.3555C127.9 95.6561 133.43 104.388 137.774 103.197Z" fill="#0DB7E9"/>
<path d="M162.216 196.788C157.872 197.964 157.435 208.295 158.874 218.183C160.681 230.579 166.794 233.091 171.595 231.788C176.396 230.501 180.439 225.287 175.813 213.659C172.11 204.359 166.58 195.627 162.216 196.788Z" fill="#0DB7E9"/>
<path d="M90.1221 90.316C86.6333 93.8433 85.7291 100.355 95.5746 108.144C103.408 114.324 112.573 119.125 115.741 115.933C118.939 112.73 114.156 103.586 107.976 95.7529C100.211 85.9138 93.6409 86.808 90.1221 90.316Z" fill="#0DB7E9"/>
<path d="M209.849 209.689C213.367 206.176 214.261 199.64 204.426 191.857C196.573 185.676 187.447 180.894 184.25 184.077C181.071 187.265 185.853 196.419 192.044 204.257C199.809 214.086 206.34 213.198 209.849 209.689Z" fill="#0DB7E9"/>
<path d="M81.7157 140.976C91.6192 142.42 101.941 142.001 103.087 137.628C104.273 133.27 95.5353 127.74 86.2453 124.042C74.6119 119.417 69.412 123.464 68.1094 128.26C66.8167 133.042 69.3241 139.164 81.7157 140.976Z" fill="#0DB7E9"/>
<path d="M218.275 159.033C208.381 157.604 198.079 158.017 196.893 162.366C195.727 166.73 204.455 172.245 213.746 175.952C225.388 180.588 230.608 176.531 231.891 171.739C233.193 166.938 230.685 160.831 218.275 159.033Z" fill="#0DB7E9"/>
<path d="M86.3515 175.821C95.6427 172.114 104.38 166.574 103.204 162.201C102.037 157.867 91.7167 157.444 81.8225 158.887C69.4209 160.68 66.9141 166.802 68.2068 171.583C69.4895 176.39 74.7088 180.432 86.3515 175.821Z" fill="#0DB7E9"/>
<path d="M213.638 124.188C204.347 127.92 195.62 133.425 196.795 137.78C197.962 142.142 208.273 142.566 218.177 141.127C230.578 139.32 233.085 133.197 231.793 128.42C230.501 123.606 225.291 119.563 213.638 124.188Z" fill="#0DB7E9"/>
<path d="M95.72 192.041C85.9043 199.791 86.7985 206.366 90.3167 209.86C93.8349 213.363 100.376 214.262 108.141 204.427C114.312 196.594 119.113 187.454 115.926 184.252C112.719 181.06 103.573 185.846 95.72 192.041Z" fill="#0DB7E9"/>
<path d="M204.26 107.978C214.096 100.209 213.192 93.644 209.703 90.1506C206.194 86.628 199.634 85.7438 191.879 95.5829C185.678 103.431 180.896 112.58 184.084 115.753C187.272 118.945 196.417 114.154 204.26 107.978Z" fill="#0DB7E9"/>
<path d="M137.618 196.896C133.274 195.729 127.744 204.446 124.041 213.747C119.405 225.389 123.439 230.622 128.259 231.886C133.061 233.188 139.174 230.676 140.971 218.28C142.419 208.382 141.982 198.067 137.618 196.896Z" fill="#0DB7E9"/>
<path d="M171.741 68.1147C166.949 66.8127 160.826 69.3246 159.038 81.7201C157.59 91.633 158.018 101.934 162.371 103.105C166.725 104.29 172.256 95.5489 175.958 86.2682C180.585 74.6209 176.561 69.4125 171.741 68.1147Z" fill="#0DB7E9"/>
<path d="M125.703 149.995C125.703 163.416 136.579 174.291 150.001 174.291C163.412 174.291 174.297 163.416 174.297 149.995C174.297 136.584 163.412 125.709 150.001 125.709C136.578 125.709 125.703 136.584 125.703 149.995Z" fill="#0DB7E9"/>
<path d="M148 70L168.815 122.797L223 127.297L181.673 164.421L194.353 220L148 190.148L101.647 220L114.327 164.421L73 127.297L127.185 122.797L148 70Z" fill="#DAB300"/>
</svg>
